<svg xmlns="http://www.w3.org/2000/svg" width="328.05" height="35" viewBox="0 0 328.05 35"><rect width="106.24" height="35" x="0" y="0" fill="#FFB200" class="svg__rect"/><rect width="223.81" height="35" x="104.24" y="0" fill="#FFB200" class="svg__rect"/><path fill="#FFF" d="M13.95 18.19L13.95 18.19L13.95 17.39Q13.95 16.19 14.38 15.27Q14.80 14.35 15.60 13.85Q16.40 13.35 17.45 13.35L17.45 13.35Q18.86 13.35 19.73 14.12Q20.59 14.89 20.73 16.29L20.73 16.29L19.25 16.29Q19.14 15.37 18.71 14.96Q18.28 14.55 17.45 14.55L17.45 14.55Q16.48 14.55 15.97 15.26Q15.45 15.96 15.44 17.33L15.44 17.33L15.44 18.09Q15.44 19.47 15.93 20.20Q16.43 20.92 17.38 20.92L17.38 20.92Q18.25 20.92 18.69 20.53Q19.13 20.14 19.25 19.22L19.25 19.22L20.73 19.22Q20.60 20.59 19.72 21.35Q18.84 22.12 17.38 22.12L17.38 22.12Q16.36 22.12 15.59 21.63Q14.81 21.15 14.39 20.26Q13.97 19.37 13.95 18.19ZM24.77 18.00L24.77 18.00L24.77 17.52Q24.77 16.28 25.21 15.32Q25.65 14.37 26.46 13.86Q27.27 13.35 28.31 13.35Q29.35 13.35 30.16 13.85Q30.96 14.35 31.40 15.29Q31.84 16.23 31.85 17.48L31.85 17.48L31.85 17.96Q31.85 19.21 31.41 20.16Q30.98 21.10 30.18 21.61Q29.37 22.12 28.32 22.12L28.32 22.12Q27.28 22.12 26.47 21.61Q25.66 21.10 25.22 20.17Q24.78 19.23 24.77 18.00ZM26.25 17.46L26.25 17.96Q26.25 19.36 26.80 20.13Q27.35 20.90 28.32 20.90L28.32 20.90Q29.31 20.90 29.84 20.15Q30.37 19.40 30.37 17.96L30.37 17.96L30.37 17.51Q30.37 16.09 29.83 15.34Q29.29 14.58 28.31 14.58L28.31 14.58Q27.35 14.58 26.81 15.33Q26.26 16.09 26.25 17.46L26.25 17.46ZM37.80 22L36.31 22L36.31 13.47L37.80 13.47L41.61 19.54L41.61 13.47L43.08 13.47L43.08 22L41.60 22L37.80 15.95L37.80 22ZM49.50 14.66L46.87 14.66L46.87 13.47L53.63 13.47L53.63 14.66L50.97 14.66L50.97 22L49.50 22L49.50 14.66ZM58.17 22L56.63 22L59.85 13.47L61.18 13.47L64.41 22L62.86 22L62.16 20.01L58.86 20.01L58.17 22ZM60.51 15.28L59.28 18.82L61.75 18.82L60.51 15.28ZM69.93 22L68.45 22L68.45 13.47L69.93 13.47L69.93 22ZM76.22 22L74.74 22L74.74 13.47L76.22 13.47L80.04 19.54L80.04 13.47L81.51 13.47L81.51 22L80.02 22L76.22 15.95L76.22 22ZM85.81 19.42L85.81 19.42L87.30 19.42Q87.30 20.15 87.78 20.55Q88.26 20.95 89.15 20.95L89.15 20.95Q89.93 20.95 90.32 20.63Q90.71 20.32 90.71 19.80L90.71 19.80Q90.71 19.24 90.31 18.94Q89.91 18.63 88.88 18.32Q87.85 18.01 87.24 17.63L87.24 17.63Q86.08 16.90 86.08 15.72L86.08 15.72Q86.08 14.69 86.92 14.02Q87.76 13.35 89.10 13.35L89.10 13.35Q89.99 13.35 90.69 13.68Q91.39 14.01 91.78 14.61Q92.18 15.22 92.18 15.96L92.18 15.96L90.71 15.96Q90.71 15.29 90.29 14.91Q89.87 14.54 89.09 14.54L89.09 14.54Q88.36 14.54 87.96 14.85Q87.56 15.16 87.56 15.71L87.56 15.71Q87.56 16.18 87.99 16.50Q88.43 16.81 89.42 17.10Q90.42 17.40 91.02 17.78Q91.63 18.16 91.91 18.65Q92.19 19.13 92.19 19.79L92.19 19.79Q92.19 20.86 91.37 21.49Q90.55 22.12 89.15 22.12L89.15 22.12Q88.23 22.12 87.45 21.77Q86.67 21.43 86.24 20.83Q85.81 20.22 85.81 19.42Z" class="svg__text"/><path x="117.24" fill="#FFF" d="M120.81 22L118.43 22L118.43 13.60L122.27 13.60Q123.41 13.60 124.25 13.98Q125.09 14.35 125.55 15.06Q126.00 15.76 126.00 16.71L126.00 16.71Q126.00 17.66 125.55 18.35Q125.09 19.05 124.25 19.42Q123.41 19.80 122.27 19.80L122.27 19.80L120.81 19.80L120.81 22ZM120.81 15.47L120.81 17.93L122.13 17.93Q122.86 17.93 123.23 17.61Q123.60 17.29 123.60 16.71L123.60 16.71Q123.60 16.12 123.23 15.80Q122.86 15.47 122.13 15.47L122.13 15.47L120.81 15.47ZM132.17 22L129.75 22L133.46 13.60L135.80 13.60L139.52 22L137.05 22L136.39 20.37L132.84 20.37L132.17 22ZM134.61 15.93L133.53 18.61L135.69 18.61L134.61 15.93ZM146.05 22L143.67 22L143.67 13.60L147.51 13.60Q148.65 13.60 149.49 13.98Q150.33 14.35 150.79 15.06Q151.25 15.76 151.25 16.71L151.25 16.71Q151.25 17.66 150.79 18.35Q150.33 19.05 149.49 19.42Q148.65 19.80 147.51 19.80L147.51 19.80L146.05 19.80L146.05 22ZM146.05 15.47L146.05 17.93L147.37 17.93Q148.10 17.93 148.47 17.61Q148.84 17.29 148.84 16.71L148.84 16.71Q148.84 16.12 148.47 15.80Q148.10 15.47 147.37 15.47L147.37 15.47L146.05 15.47ZM158.13 18.95L154.92 13.60L157.43 13.60L159.42 16.94L161.41 13.60L163.72 13.60L160.50 18.99L160.50 22L158.13 22L158.13 18.95ZM170.18 22L167.80 22L167.80 13.60L171.64 13.60Q172.79 13.60 173.62 13.98Q174.46 14.35 174.92 15.06Q175.38 15.76 175.38 16.71L175.38 16.71Q175.38 17.62 174.95 18.30Q174.52 18.98 173.73 19.36L173.73 19.36L175.54 22L173.00 22L171.47 19.77L170.18 19.77L170.18 22ZM170.18 15.47L170.18 17.93L171.50 17.93Q172.23 17.93 172.60 17.61Q172.97 17.29 172.97 16.71L172.97 16.71Q172.97 16.12 172.60 15.79Q172.23 15.47 171.50 15.47L171.50 15.47L170.18 15.47ZM180.09 18.26L180.09 18.26L180.09 13.60L182.47 13.60L182.47 18.19Q182.47 20.20 184.06 20.20L184.06 20.20Q185.65 20.20 185.65 18.19L185.65 18.19L185.65 13.60L187.99 13.60L187.99 18.26Q187.99 20.13 186.95 21.15Q185.91 22.17 184.04 22.17L184.04 22.17Q182.17 22.17 181.13 21.15Q180.09 20.13 180.09 18.26ZM192.49 21.24L192.49 21.24L193.27 19.49Q193.83 19.86 194.58 20.09Q195.32 20.32 196.04 20.32L196.04 20.32Q197.41 20.32 197.41 19.64L197.41 19.64Q197.41 19.28 197.02 19.11Q196.63 18.93 195.77 18.74L195.77 18.74Q194.82 18.53 194.18 18.30Q193.55 18.06 193.09 17.55Q192.64 17.03 192.64 16.16L192.64 16.16Q192.64 15.39 193.06 14.77Q193.47 14.15 194.31 13.79Q195.14 13.43 196.35 13.43L196.35 13.43Q197.18 13.43 197.98 13.62Q198.79 13.80 199.40 14.17L199.40 14.17L198.67 15.93Q197.47 15.28 196.34 15.28L196.34 15.28Q195.63 15.28 195.31 15.49Q194.99 15.70 194.99 16.04L194.99 16.04Q194.99 16.37 195.37 16.54Q195.75 16.71 196.60 16.89L196.60 16.89Q197.56 17.10 198.19 17.33Q198.82 17.56 199.29 18.07Q199.75 18.58 199.75 19.46L199.75 19.46Q199.75 20.21 199.33 20.83Q198.91 21.44 198.07 21.80Q197.23 22.17 196.03 22.17L196.03 22.17Q195.01 22.17 194.05 21.92Q193.09 21.67 192.49 21.24ZM211.23 18.26L211.23 18.26L211.23 13.60L213.61 13.60L213.61 18.19Q213.61 20.20 215.20 20.20L215.20 20.20Q216.78 20.20 216.78 18.19L216.78 18.19L216.78 13.60L219.13 13.60L219.13 18.26Q219.13 20.13 218.09 21.15Q217.05 22.17 215.18 22.17L215.18 22.17Q213.30 22.17 212.27 21.15Q211.23 20.13 211.23 18.26ZM226.55 22L224.21 22L224.21 13.60L226.17 13.60L229.88 18.07L229.88 13.60L232.21 13.60L232.21 22L230.25 22L226.55 17.52L226.55 22ZM241.34 22L237.37 22L237.37 13.60L241.34 13.60Q242.72 13.60 243.79 14.12Q244.86 14.63 245.44 15.58Q246.03 16.53 246.03 17.80L246.03 17.80Q246.03 19.07 245.44 20.02Q244.86 20.97 243.79 21.48Q242.72 22 241.34 22L241.34 22ZM239.75 15.50L239.75 20.10L241.25 20.10Q242.32 20.10 242.98 19.49Q243.63 18.88 243.63 17.80L243.63 17.80Q243.63 16.72 242.98 16.11Q242.32 15.50 241.25 15.50L241.25 15.50L239.75 15.50ZM257.51 22L250.76 22L250.76 13.60L257.35 13.60L257.35 15.44L253.12 15.44L253.12 16.85L256.85 16.85L256.85 18.63L253.12 18.63L253.12 20.17L257.51 20.17L257.51 22ZM264.69 22L262.31 22L262.31 13.60L266.15 13.60Q267.30 13.60 268.13 13.98Q268.97 14.35 269.43 15.06Q269.89 15.76 269.89 16.71L269.89 16.71Q269.89 17.62 269.46 18.30Q269.03 18.98 268.24 19.36L268.24 19.36L270.05 22L267.51 22L265.98 19.77L264.69 19.77L264.69 22ZM264.69 15.47L264.69 17.93L266.01 17.93Q266.74 17.93 267.11 17.61Q267.48 17.29 267.48 16.71L267.48 16.71Q267.48 16.12 267.11 15.79Q266.74 15.47 266.01 15.47L266.01 15.47L264.69 15.47ZM276.47 15.48L273.88 15.48L273.88 13.60L281.41 13.60L281.41 15.48L278.84 15.48L278.84 22L276.47 22L276.47 15.48ZM287.20 22L284.77 22L288.48 13.60L290.82 13.60L294.54 22L292.07 22L291.41 20.37L287.86 20.37L287.20 22ZM289.63 15.93L288.55 18.61L290.71 18.61L289.63 15.93ZM305.08 22L298.69 22L298.69 13.60L301.07 13.60L301.07 20.11L305.08 20.11L305.08 22ZM316.24 22L309.50 22L309.50 13.60L316.09 13.60L316.09 15.44L311.85 15.44L311.85 16.85L315.58 16.85L315.58 18.63L311.85 18.63L311.85 20.17L316.24 20.17L316.24 22Z" class="svg__text"/></svg>